<?xml version="1.0" encoding="UTF-8"?>
<mxfile host="app.diagrams.net" agent="Mozilla/5.0 (Windows NT 10.0; Win64; x64; rv:144.0) Gecko/20100101 Firefox/144.0" version="28.2.5">
  <diagram name="TU Repair System UML" id="repair-system-uml">
    <mxGraphModel dx="992" dy="1738" grid="1" gridSize="10" guides="1" tooltips="1" connect="1" arrows="1" fold="1" page="1" pageScale="1" pageWidth="827" pageHeight="1169" math="0" shadow="0">
      <root>
        <mxCell id="0" />
        <mxCell id="1" parent="0" />
        <mxCell id="2" value="&lt;div&gt;User&lt;/div&gt;&lt;div&gt;&lt;br&gt;&lt;/div&gt;&lt;div&gt;&lt;br&gt;&lt;/div&gt;&lt;div&gt;&lt;br&gt;&lt;/div&gt;&lt;div&gt;&lt;br&gt;&lt;/div&gt;&lt;div&gt;&lt;br&gt;&lt;/div&gt;&lt;div&gt;&lt;br&gt;&lt;/div&gt;&lt;div&gt;&lt;br&gt;&lt;/div&gt;&lt;div&gt;&lt;br&gt;&lt;/div&gt;&lt;div&gt;&lt;br&gt;&lt;/div&gt;&lt;div&gt;&lt;br&gt;&lt;/div&gt;&lt;div&gt;&lt;br&gt;&lt;/div&gt;&lt;div&gt;&lt;br&gt;&lt;/div&gt;&lt;div&gt;&lt;br&gt;&lt;/div&gt;" style="shape=umlClass;rounded=0;whiteSpace=wrap;html=1;" parent="1" vertex="1">
          <mxGeometry x="204" y="-120" width="180" height="220" as="geometry" />
        </mxCell>
        <mxCell id="3" value="+id: Long&#xa;+username: String&#xa;+fullName: String&#xa;+email: String&#xa;+role: Role" style="shape=umlClassAttribute;html=1;" parent="2" vertex="1">
          <mxGeometry y="36.666666666666664" width="180" height="110" as="geometry" />
        </mxCell>
        <mxCell id="4" value="+updateProfile()" style="shape=umlClassMethod;html=1;" parent="2" vertex="1">
          <mxGeometry y="146.66666666666666" width="180" height="73.33333333333333" as="geometry" />
        </mxCell>
        <mxCell id="5" value="Student" style="shape=umlClass;rounded=0;whiteSpace=wrap;html=1;" parent="1" vertex="1">
          <mxGeometry x="84" y="140" width="100" height="50" as="geometry" />
        </mxCell>
        <mxCell id="6" value="Technician" style="shape=umlClass;rounded=0;whiteSpace=wrap;html=1;" parent="1" vertex="1">
          <mxGeometry x="204" y="420" width="100" height="50" as="geometry" />
        </mxCell>
        <mxCell id="7" value="Admin" style="shape=umlClass;rounded=0;whiteSpace=wrap;html=1;" parent="1" vertex="1">
          <mxGeometry x="194" y="140" width="100" height="50" as="geometry" />
        </mxCell>
        <mxCell id="8" value="&lt;div&gt;RepairRequest&lt;/div&gt;&lt;div&gt;&lt;br&gt;&lt;/div&gt;&lt;div&gt;&lt;br&gt;&lt;/div&gt;&lt;div&gt;&lt;br&gt;&lt;/div&gt;&lt;div&gt;&lt;br&gt;&lt;/div&gt;&lt;div&gt;&lt;br&gt;&lt;/div&gt;&lt;div&gt;&lt;br&gt;&lt;/div&gt;&lt;div&gt;&lt;br&gt;&lt;/div&gt;&lt;div&gt;&lt;br&gt;&lt;/div&gt;&lt;div&gt;&lt;br&gt;&lt;/div&gt;&lt;div&gt;&lt;br&gt;&lt;/div&gt;&lt;div&gt;&lt;br&gt;&lt;/div&gt;&lt;div&gt;&lt;br&gt;&lt;/div&gt;&lt;div&gt;&lt;br&gt;&lt;/div&gt;&lt;div&gt;&lt;br&gt;&lt;/div&gt;" style="shape=umlClass;rounded=0;whiteSpace=wrap;html=1;" parent="1" vertex="1">
          <mxGeometry x="424" y="150" width="250" height="240" as="geometry" />
        </mxCell>
        <mxCell id="9" value="+id: Long&#xa;+title: String&#xa;+description: String&#xa;+status: RequestStatus&#xa;+priority: Priority&#xa;+createdAt&#xa;+updatedAt" style="shape=umlClassAttribute;html=1;" parent="8" vertex="1">
          <mxGeometry y="39.99999999999999" width="250" height="120" as="geometry" />
        </mxCell>
        <mxCell id="10" value="+assignTo(Technician)&#xa;+updateStatus(status, User, note)&#xa;+addComment(Comment)&#xa;+addAttachment(Attachment)&#xa;+cancel()" style="shape=umlClassMethod;html=1;" parent="8" vertex="1">
          <mxGeometry y="159.99999999999997" width="250" height="79.99999999999999" as="geometry" />
        </mxCell>
        <mxCell id="11" value="Comment" style="shape=umlClass;rounded=0;whiteSpace=wrap;html=1;" parent="1" vertex="1">
          <mxGeometry x="314" y="420" width="100" height="50" as="geometry" />
        </mxCell>
        <mxCell id="12" value="Attachment" style="shape=umlClass;rounded=0;whiteSpace=wrap;html=1;" parent="1" vertex="1">
          <mxGeometry x="424" y="420" width="100" height="50" as="geometry" />
        </mxCell>
        <mxCell id="13" value="Location" style="shape=umlClass;rounded=0;whiteSpace=wrap;html=1;" parent="1" vertex="1">
          <mxGeometry x="534" y="420" width="100" height="50" as="geometry" />
        </mxCell>
        <mxCell id="14" value="Equipment" style="shape=umlClass;rounded=0;whiteSpace=wrap;html=1;" parent="1" vertex="1">
          <mxGeometry x="644" y="420" width="100" height="50" as="geometry" />
        </mxCell>
        <mxCell id="15" value="Notification" style="shape=umlClass;rounded=0;whiteSpace=wrap;html=1;" parent="1" vertex="1">
          <mxGeometry x="304" y="140" width="100" height="50" as="geometry" />
        </mxCell>
        <mxCell id="16" style="endArrow=blockThin;html=1;" parent="1" source="2" target="5" edge="1">
          <mxGeometry relative="1" as="geometry" />
        </mxCell>
        <mxCell id="17" style="endArrow=blockThin;html=1;exitX=0.5;exitY=1;exitDx=0;exitDy=0;entryX=0.192;entryY=0.025;entryDx=0;entryDy=0;entryPerimeter=0;" parent="1" source="4" target="6" edge="1">
          <mxGeometry relative="1" as="geometry">
            <mxPoint x="160" y="360" as="targetPoint" />
          </mxGeometry>
        </mxCell>
        <mxCell id="18" style="endArrow=blockThin;html=1;" parent="1" source="2" target="7" edge="1">
          <mxGeometry relative="1" as="geometry" />
        </mxCell>
        <mxCell id="19" style="edgeStyle=orthogonalEdgeStyle;rounded=0;endArrow=none;html=1;" parent="1" source="2" target="8" edge="1">
          <mxGeometry relative="1" as="geometry" />
        </mxCell>
        <mxCell id="20" style="edgeStyle=orthogonalEdgeStyle;rounded=0;endArrow=none;html=1;" parent="1" source="8" target="6" edge="1">
          <mxGeometry relative="1" as="geometry" />
        </mxCell>
        <mxCell id="21" style="edgeStyle=orthogonalEdgeStyle;rounded=0;endArrow=none;html=1;" parent="1" source="8" target="11" edge="1">
          <mxGeometry relative="1" as="geometry" />
        </mxCell>
        <mxCell id="22" style="edgeStyle=orthogonalEdgeStyle;rounded=0;endArrow=none;html=1;" parent="1" source="8" target="12" edge="1">
          <mxGeometry relative="1" as="geometry" />
        </mxCell>
        <mxCell id="23" style="edgeStyle=orthogonalEdgeStyle;rounded=0;endArrow=none;html=1;" parent="1" source="8" target="13" edge="1">
          <mxGeometry relative="1" as="geometry" />
        </mxCell>
        <mxCell id="24" style="edgeStyle=orthogonalEdgeStyle;rounded=0;endArrow=none;html=1;" parent="1" source="8" target="14" edge="1">
          <mxGeometry relative="1" as="geometry" />
        </mxCell>
        <mxCell id="sYWmLuEn--iYtm9sv3VV-25" style="endArrow=blockThin;html=1;exitX=0.5;exitY=0;exitDx=0;exitDy=0;entryX=0.75;entryY=1;entryDx=0;entryDy=0;" edge="1" parent="1" source="15" target="4">
          <mxGeometry relative="1" as="geometry">
            <mxPoint x="336" y="120" as="sourcePoint" />
            <mxPoint x="264" y="110" as="targetPoint" />
          </mxGeometry>
        </mxCell>
      </root>
    </mxGraphModel>
  </diagram>
</mxfile>
